<svg width="160" height="54" viewBox="0 0 160 54" fill="none" xmlns="http://www.w3.org/2000/svg">
<path d="M112.009 16.0383C112.236 15.6975 112.577 15.3568 112.691 14.9025C113.373 13.1988 114.85 12.6309 116.442 12.6309C121.557 12.5173 126.104 14.1074 129.741 17.8556C131.901 20.1272 133.378 22.6259 133.947 25.6926C134.515 28.8729 134.515 32.0531 133.265 35.0062C132.355 37.2778 130.309 38.3 128.377 39.3222C125.876 40.6852 123.035 41.3667 120.193 41.1395C116.669 40.7988 113.373 39.4358 111.781 36.142C110.872 34.3247 110.417 32.0531 110.417 30.0087C110.304 26.7148 110.645 23.3074 110.872 20.0136C110.872 19.3321 110.986 18.6506 109.963 19.1049C108.371 19.9 107.121 18.7642 105.757 18.4235C105.188 18.3099 104.62 18.0827 104.279 17.742C103.37 16.8333 102.574 17.0605 101.892 17.9691C100.755 19.4457 99.6187 20.8087 98.5957 22.3988C98.2547 22.9667 98.2547 23.7617 98.3683 24.4432C98.7094 26.942 99.164 29.3272 99.505 31.8259C99.7324 33.7568 99.0504 35.5741 96.095 36.4827C94.5036 37.0506 92.5712 37.0506 90.8662 37.0506C89.1612 37.0506 88.0245 35.3469 87.7971 33.1889C87.1151 27.8506 87.6835 22.3988 88.1381 17.0605C88.3655 14.7889 89.8432 13.5395 92.1165 13.4259C93.2532 13.4259 94.3899 13.4259 95.413 13.7667C96.2086 13.9938 96.8907 13.8803 97.5727 13.3124C99.9597 11.6087 102.46 10.1321 105.416 9.45063C109.281 8.65557 110.758 10.8136 111.554 13.9938C111.668 14.5617 111.781 15.2432 111.781 15.8111C111.781 16.0383 111.895 16.0383 112.009 16.0383ZM125.194 27.2827C124.74 25.6926 124.512 24.2161 123.944 22.8531C123.035 20.9222 120.534 20.6951 119.397 22.5124C117.465 25.3519 117.692 28.5321 118.942 31.4852C119.965 33.8704 122.58 33.984 123.83 31.7124C124.512 30.463 124.74 28.7593 125.194 27.2827ZM89.2748 22.1716C89.3885 22.1716 89.3885 22.1716 89.2748 22.1716C89.3885 22.3988 89.2748 22.5124 89.3885 22.7395C89.5022 23.0803 89.7295 23.421 89.8432 23.6482C89.9568 23.3074 90.1842 23.0803 90.1842 22.7395C90.2978 21.4901 90.2978 20.3543 90.5252 19.1049C90.7525 17.742 90.8662 16.2654 92.4576 15.6975C92.5712 15.6975 92.6849 15.3568 92.7986 15.2432C92.5712 15.1296 92.2302 15.0161 92.1165 15.1296C91.3209 15.8111 90.2979 16.4926 90.0705 17.4012C89.5022 18.9914 89.5022 20.5815 89.2748 22.1716ZM112.918 19.1049C113.259 18.4235 113.373 17.9691 113.714 17.5148C114.737 16.2654 115.532 14.6753 117.465 14.6753C118.147 14.6753 118.715 14.9025 119.397 14.9025C119.738 14.9025 120.079 14.6753 120.534 14.5617C120.193 14.3346 119.852 13.9938 119.511 13.9938C118.601 13.9938 117.692 14.1074 116.783 14.1074C115.191 14.1074 112.918 16.7198 112.577 18.1963C112.577 18.5371 112.804 18.7642 112.918 19.1049ZM123.035 34.8926C124.399 34.8926 127.013 31.4852 126.558 30.3494C126.558 30.2358 126.331 30.0087 126.217 30.0087C126.104 30.0087 125.876 30.1222 125.876 30.3494C125.422 32.0531 124.512 33.4161 122.921 34.2111C122.807 34.3247 122.694 34.5519 122.694 34.6654C122.807 34.8926 123.035 34.8926 123.035 34.8926ZM111.781 22.2852C111.895 22.2852 112.122 22.3988 112.236 22.3988C112.35 21.7173 112.577 21.0358 112.577 20.3543C112.577 20.2407 112.35 20.1272 112.236 20.1272C112.122 20.5815 111.895 21.1494 111.781 21.6037C111.781 21.7173 111.895 22.058 111.781 22.2852Z" fill="#303030"/>
<path d="M85.9784 21.0358C85.8647 26.0334 84.8417 30.8037 81.659 34.779C80.5223 36.2556 79.0446 37.3914 77.7942 38.7543C76.7712 40.0037 75.8618 41.3667 74.8388 42.6161C73.9295 43.6383 72.9064 44.6605 71.7697 45.342C69.61 46.5914 66.541 44.7741 66.2 42.2753C65.9726 40.6852 65.4043 39.2087 65.1769 37.6185C64.7223 34.6654 64.3813 31.7124 64.0402 28.7593C63.6992 25.579 63.3582 22.2852 63.2446 19.105C63.2446 15.9247 63.4719 12.7445 63.6992 9.56422C63.8129 8.42841 63.6992 7.17903 64.1539 6.15681C64.6086 5.24817 65.518 4.22595 66.4273 3.88521C71.2014 2.1815 77.6805 2.63583 81.5453 6.95188C84.046 9.6778 85.069 13.0852 85.5237 16.6062C85.7511 18.0827 85.751 19.5593 85.9784 21.0358ZM72.2244 32.9618C73.5884 31.1445 75.1798 29.8951 75.8618 28.305C77.7942 23.421 77.6805 18.4235 75.9755 13.5395C75.5208 12.1766 74.4978 11.1543 72.9064 10.9272C72.3381 10.8136 71.9971 10.8136 71.9971 11.6087C71.8834 14.1074 71.5424 16.6062 71.5424 19.105C71.5424 22.7395 71.8834 26.3741 71.9971 30.0087C71.9971 30.9173 72.1107 31.7124 72.2244 32.9618ZM64.4949 10.1321C64.6086 10.3593 64.8359 10.5864 65.0633 10.9272C65.2906 10.5864 65.5179 10.3593 65.5179 10.0185C65.5179 9.33706 65.2906 8.542 65.5179 7.86051C65.859 6.04323 66.9956 4.90743 68.928 4.68027C69.1554 4.68027 69.3827 4.33953 69.61 4.22595C69.3827 4.11237 69.0417 3.88521 68.8143 3.99879C67.7913 4.45311 66.4273 4.79385 65.859 5.7025C65.1769 6.8383 64.9496 8.542 64.4949 10.1321ZM78.8172 26.6013C78.3626 26.2605 78.2489 25.9198 78.1352 26.0334C77.9079 26.1469 77.6805 26.2605 77.5669 26.4877C76.6575 28.0778 75.7482 29.7815 74.9525 31.4852C74.8388 31.5988 74.9525 31.9395 74.9525 32.0531C75.1798 32.0531 75.5208 32.0531 75.5208 31.9395C76.5439 30.2358 77.6805 28.4185 78.8172 26.6013ZM64.8359 16.8334C64.9496 16.8334 65.0633 16.8334 65.2906 16.8334C65.2906 16.1519 65.2906 15.3568 65.2906 14.6753C65.2906 14.6753 65.0633 14.5617 64.9496 14.5617C64.8359 15.1297 64.8359 15.8111 64.7223 16.379C64.7223 16.4926 64.8359 16.6062 64.8359 16.8334Z" fill="#303030"/>
<path d="M9.02445 7.74693C9.25179 5.81606 10.0475 4.22594 11.9798 3.3173C13.7986 2.52223 15.5036 2.86298 17.095 3.8852C20.164 5.92964 21.9827 8.88274 23.8014 11.9494C25.6201 14.9025 25.7338 18.1963 26.1885 21.3766C26.5295 24.2161 26.7568 27.1692 27.0978 30.1222C27.3252 32.3938 26.5295 34.2111 24.3698 35.1198C23.2331 35.6877 21.9827 36.0284 20.846 36.3692C19.3683 36.8235 18.459 36.0284 18.2316 34.5519C18.0043 32.9617 17.5496 31.3716 17.2086 29.6679C17.095 28.9864 16.7539 28.9864 16.1856 29.3272C14.8216 29.8951 13.4575 30.3494 12.2072 30.9173C12.0935 30.9173 11.9798 31.0309 11.9798 31.0309C9.9338 30.5766 10.0475 32.1667 9.70646 33.4161C9.36546 35.0062 9.02445 36.4827 8.56977 38.0729C8.00143 40.1173 6.29639 41.3667 4.13668 41.2531C2.2043 41.2531 0.385601 39.8901 0.0445935 37.8457C-0.0690755 37.0506 0.0445901 36.2556 0.271928 35.4605C2.43164 26.3741 4.93236 17.4013 8.45611 8.76915C8.45611 8.42841 8.79711 8.08767 9.02445 7.74693C8.68344 8.99631 8.34243 10.1321 8.00143 11.3815C7.88776 11.6087 8.11509 11.9494 8.22876 12.1766C8.4561 11.9494 8.79711 11.8358 8.91077 11.6087C9.13811 11.0408 9.25178 10.4729 9.47912 9.90495C10.1611 7.97409 10.8432 5.92965 12.5482 4.56669C12.7755 4.33953 13.0029 3.99878 13.1165 3.77162C12.7755 3.8852 12.3209 3.77162 12.0935 3.99878C10.9568 5.24817 9.9338 6.49755 9.02445 7.74693ZM14.1396 18.4235C14.0259 18.4235 13.9122 18.4235 13.7985 18.4235C13.4575 19.4457 13.0029 20.5815 12.6619 21.6037C12.5482 21.8309 12.6619 22.1716 12.6619 22.5124C13.3439 22.3988 14.0259 22.2852 14.7079 22.1716C14.9352 22.1716 15.1626 21.8309 15.1626 21.7173C14.8216 20.5815 14.4806 19.4457 14.1396 18.4235ZM17.2086 19.9C16.8676 19.105 16.5266 18.3099 16.2993 17.5148C16.1856 17.4012 16.0719 17.2877 15.8446 17.1741C15.7309 17.4013 15.2762 17.6284 15.3899 17.8556C15.6173 18.6506 15.9583 19.4457 16.2993 20.1272C16.4129 20.2408 16.7539 20.4679 16.8676 20.4679C16.9813 20.3543 17.095 20.1272 17.2086 19.9ZM7.43308 15.8111C7.77409 14.9025 8.00143 14.3346 8.11509 13.6531C8.11509 13.5395 7.88776 13.4259 7.66042 13.3124C7.43308 13.9938 7.09208 14.5617 6.86474 15.2432C6.86474 15.2432 7.09208 15.4704 7.43308 15.8111Z" fill="#303030"/>
<path d="M131.446 50.4531C132.014 48.6358 132.583 46.8185 133.378 45.0012C134.515 42.5025 134.856 39.8901 135.197 37.1642C135.538 33.7568 136.22 30.463 136.675 27.0556C136.902 25.6926 137.13 24.3296 137.471 22.9667C137.925 20.2408 139.971 18.7642 142.017 17.1741C142.245 17.0605 142.472 16.9469 142.586 16.9469C144.063 17.1741 144.859 16.2654 145.768 15.3568C148.383 12.7445 150.77 13.0852 153.725 15.0161C157.476 17.5148 158.727 21.1494 159.181 25.4654C159.522 28.4185 159.295 31.258 158.158 34.0975C157.249 36.5963 155.544 38.4136 153.384 39.8901C151.338 41.3667 149.178 42.6161 147.019 43.8654C146.678 44.0926 146.223 44.2062 145.882 44.4333C145.2 44.8877 143.836 44.3198 143.722 45.7963C143.722 46.705 143.609 47.6136 143.722 48.4086C144.177 51.2482 142.358 53.6333 139.403 53.8605C138.039 53.9741 136.675 53.8605 135.197 53.8605C133.719 53.8605 132.583 52.9519 131.787 51.7025C131.56 51.3617 131.56 50.9074 131.56 50.4531C131.673 50.5667 131.56 50.5667 131.446 50.4531ZM149.86 35.4605C150.088 35.2333 150.201 34.8926 150.429 34.6654C151.565 33.7568 151.906 32.5074 152.134 31.258C151.111 32.1667 150.542 33.3025 150.429 34.6654C150.201 34.8926 149.974 35.2333 149.86 35.4605L149.747 35.5741C149.747 35.5741 149.86 35.5741 149.86 35.4605ZM145.996 16.9469C145.655 17.2877 145.427 17.6284 145.086 17.8556C145.2 17.9691 145.314 18.0827 145.427 18.0827C145.655 17.742 145.882 17.4012 145.996 16.9469C146.223 16.7198 146.564 16.379 146.791 16.1519C146.905 16.1519 147.019 16.1519 147.132 16.0383C147.36 15.9247 147.587 15.9247 147.814 15.8111C148.383 15.6975 148.951 15.584 148.383 14.7889C147.814 15.1296 147.246 15.584 146.678 15.9247V16.0383C146.564 16.379 146.337 16.7198 145.996 16.9469ZM144.404 30.9173C144.518 30.9173 144.632 30.9173 144.632 31.0309C144.632 31.5988 144.632 32.1667 144.632 32.621C144.745 33.8704 144.632 35.3469 146.109 36.0284C147.019 36.3691 148.496 35.3469 149.292 33.8704C149.406 33.7568 149.406 33.6432 149.519 33.5296C150.656 30.8037 150.656 27.9642 149.974 25.2383C149.747 24.5568 149.065 23.3074 148.724 23.3074C147.814 23.421 147.019 23.9889 146.223 24.5568C145.882 24.784 145.655 25.2383 145.541 25.6926C145.2 27.3963 144.745 29.1 144.404 30.9173ZM138.153 29.8951C138.948 28.3049 138.38 26.4877 138.948 24.8975C139.517 23.1938 140.426 21.7173 141.222 20.1272C139.062 20.2408 137.47 26.2605 138.153 29.8951ZM137.471 33.1889C137.584 33.1889 137.698 33.1889 137.812 33.1889C137.812 32.5074 137.812 31.9395 137.812 31.258C137.698 31.258 137.584 31.258 137.471 31.258C137.471 31.9395 137.471 32.5074 137.471 33.1889ZM149.065 36.0284C148.951 36.2556 148.837 36.3691 148.837 36.4827C148.837 36.5963 149.065 36.5963 149.178 36.7099C149.292 36.5963 149.406 36.3691 149.406 36.2556C149.406 36.2556 149.178 36.142 149.065 36.0284Z" fill="#303030"/>
<path d="M48.4676 33.4161C48.4676 34.5519 48.4676 35.5741 48.4676 36.7099C48.4676 39.2087 46.5352 41.1395 44.0345 41.2531C41.1928 41.2531 39.4877 39.5494 39.4877 36.8235C39.3741 33.3025 39.1467 29.8951 39.2604 26.3741C39.3741 22.9667 39.6014 19.6729 40.0561 16.2654C40.3971 13.6531 43.0115 12.858 45.1712 14.3346C45.6259 14.6753 46.1942 14.9025 46.5352 15.2432C49.2633 18.8778 53.5827 18.5371 57.3338 19.5593C59.0388 20.0136 61.0849 19.9 62.2216 21.7173C63.4719 23.6482 63.2446 28.305 60.2892 29.6679C59.7208 29.8951 58.8115 30.0087 58.2431 29.6679C57.1064 28.9864 55.8561 28.1914 55.0604 27.1691C54.2647 26.2605 53.469 25.9198 52.3324 26.1469C51.5367 26.2605 50.8547 26.7148 50.1726 26.8284C48.6949 27.0556 48.5813 28.305 48.4676 29.3272C48.2403 30.8037 48.4676 32.1667 48.4676 33.4161C48.5813 33.4161 48.5813 33.4161 48.4676 33.4161ZM40.8518 22.058C40.9654 22.058 41.0791 22.058 41.1928 22.1716C41.1928 22.6259 41.1928 23.1938 41.1928 23.6482C41.1928 23.8753 41.4201 24.1025 41.6475 24.2161C41.7611 23.9889 41.9885 23.8753 41.9885 23.6482C42.1021 22.2852 42.1021 20.9222 42.3295 19.6729C42.4431 18.8778 42.4431 18.0827 42.7842 17.4012C43.0115 17.0605 43.5798 16.8333 44.0345 16.6062C44.2618 16.4926 44.6029 16.4926 44.8302 16.379C44.4892 16.2654 44.1482 15.8111 43.9208 15.9247C43.3525 16.1519 42.4431 16.4926 42.3295 16.9469C41.6475 18.537 41.3065 20.3543 40.8518 22.058ZM56.1971 21.263C56.1971 21.1494 56.3108 20.9222 56.3108 20.8087C54.6057 20.3543 52.9007 19.9 51.082 19.4457C51.082 19.6729 50.9683 19.7864 50.9683 20.0136C52.6734 20.4679 54.4921 20.8087 56.1971 21.263ZM42.1021 26.6012C41.8748 26.1469 41.7611 25.8062 41.5338 25.4654C41.3065 25.9198 40.9654 26.2605 40.8518 26.7148C40.8518 27.0556 41.1928 27.3963 41.4201 27.737C41.6475 27.3963 41.8748 26.942 42.1021 26.6012Z" fill="#303030"/>
<path d="M34.941 8.88272C36.8733 8.88272 38.4647 10.4728 38.351 12.6309C38.2374 15.8111 38.01 18.8778 37.7827 22.058C37.7827 22.7395 37.669 23.3074 37.669 23.9889C37.669 28.3049 37.669 32.621 37.669 36.937C37.669 37.3914 37.669 37.7321 37.5554 38.1864C36.987 40.1173 35.5093 40.7988 33.6906 39.663C30.9625 37.9593 29.0302 35.8012 28.9165 32.1667C28.6892 26.1469 29.7122 20.2407 30.6215 14.3346C30.7352 13.4259 31.0762 12.4037 31.4172 11.4951C31.8719 9.90495 33.5769 8.9963 34.941 8.88272ZM31.6446 19.7864C32.4402 16.9469 33.1223 14.1074 33.9179 11.2679C31.6446 13.6531 31.9856 16.8333 31.6446 19.7864Z" fill="#303030"/>
<path d="M37.669 6.95187C35.8503 6.61113 33.5769 6.1568 31.8719 4.4531C31.0762 3.65804 31.0762 2.52224 31.8719 1.72718C33.6906 -0.0901048 37.8964 -0.544428 39.9424 0.704955C41.5338 1.6136 42.6705 3.65804 42.3295 4.79384C42.1021 5.92964 40.1697 6.95187 37.669 6.95187ZM33.0086 2.29508C33.2359 2.06792 33.5769 1.95434 33.8043 1.72718C34.259 1.6136 34.6 1.38644 35.0546 1.27286C34.941 1.15928 34.941 1.04569 34.8273 0.932112C34.4863 1.15927 34.1453 1.50002 33.8043 1.72718C33.5769 1.95434 33.2359 2.06792 33.0086 2.29508C32.8949 2.40866 33.0086 2.29508 33.0086 2.29508C33.0086 2.29508 32.8949 2.40866 33.0086 2.29508Z" fill="#303030"/>
</svg>
